HIERARCHY
ROOT	Hips
{
	OFFSET	0.000	0.000	0.000
	CHANNELS	6	Xposition	Yposition	Zposition	Yrotation	Xrotation	Zrotation
	JOINT	Chest
	{
		OFFSET	0.000	8.484	-3.948
		CHANNELS	3	Yrotation	Xrotation	Zrotation
		JOINT	Chest2
		{
			OFFSET	0.736	24.029	0.515
			CHANNELS	3	Yrotation	Xrotation	Zrotation
			JOINT	LeftCollar
			{
				OFFSET	7.776	16.202	2.430
				CHANNELS	3	Yrotation	Xrotation	Zrotation
				JOINT	LeftShoulder
				{
					OFFSET	13.460	0.000	0.000
					CHANNELS	3	Yrotation	Xrotation	Zrotation
					JOINT	LeftElbow
					{
						OFFSET	26.100	-0.000	0.000
						CHANNELS	3	Yrotation	Xrotation	Zrotation
						JOINT	LeftWrist
						{
							OFFSET	28.740	-0.000	-0.000
							CHANNELS	3	Yrotation	Xrotation	Zrotation
							End Site
							{
								OFFSET	0.006	-10.922	-0.000
							}
						}
					}
				}
			}
			JOINT	Neck
			{
				OFFSET	0.736	24.029	0.515
				CHANNELS	3	Yrotation	Xrotation	Zrotation
				JOINT	Head
				{
					OFFSET	-0.000	10.452	0.000
					CHANNELS	3	Yrotation	Xrotation	Zrotation
					End Site
					{
						OFFSET	-0.012	20.534	-0.005
					}
				}
			}
			JOINT	RightCollar
			{
				OFFSET	-6.304	16.202	2.430
				CHANNELS	3	Yrotation	Xrotation	Zrotation
				JOINT	RightShoulder
				{
					OFFSET	-13.460	-0.000	-0.000
					CHANNELS	3	Yrotation	Xrotation	Zrotation
					JOINT	RightElbow
					{
						OFFSET	-26.100	-0.000	-0.000
						CHANNELS	3	Yrotation	Xrotation	Zrotation
						JOINT	RightWrist
						{
							OFFSET	-28.740	-0.000	-0.000
							CHANNELS	3	Yrotation	Xrotation	Zrotation
							End Site
							{
								OFFSET	0.006	-10.922	0.000
							}
						}
					}
				}
			}
		}
	}
	JOINT	LeftHip
	{
		OFFSET	8.100	-0.000	0.000
		CHANNELS	3	Yrotation	Xrotation	Zrotation
		JOINT	LeftKnee
		{
			OFFSET	-0.000	-43.200	0.000
			CHANNELS	3	Yrotation	Xrotation	Zrotation
			JOINT	LeftAnkle
			{
				OFFSET	0.062	-43.300	0.000
				CHANNELS	3	Yrotation	Xrotation	Zrotation
				End Site
				{
					OFFSET	-0.000	-6.231	13.152
				}
			}
		}
	}
	JOINT	RightHip
	{
		OFFSET	-8.100	0.000	-0.000
		CHANNELS	3	Yrotation	Xrotation	Zrotation
		JOINT	RightKnee
		{
			OFFSET	0.000	-43.200	0.000
			CHANNELS	3	Yrotation	Xrotation	Zrotation
			JOINT	RightAnkle
			{
				OFFSET	-0.063	-43.300	0.000
				CHANNELS	3	Yrotation	Xrotation	Zrotation
				End Site
				{
					OFFSET	-0.000	-6.231	13.152
				}
			}
		}
	}
}
MOTION
Frames:	26
Frame Time:	0.010
5.142	88.847	4.137	-88.207	-22.308	39.423	-3.106	4.198	-11.412	-7.073	7.736	-23.293	-37.508	42.157	-25.453	-79.810	-69.894	38.063	-53.242	-3.372	-13.735	30.214	-16.215	84.412	42.353	-2.123	3.406	42.353	-2.123	3.406	28.397	49.993	13.869	82.420	-51.198	-28.582	33.475	28.253	-11.378	-20.968	-44.585	291.899	48.127	-64.925	-39.459	-70.839	-30.207	-106.295	140.251	37.535	-3.554	62.712	-42.080	-77.189	58.025	-13.917	102.340	-126.457	15.923	-13.984	
5.143	88.847	4.137	-88.206	-22.308	39.421	-3.107	4.200	-11.412	-7.076	7.739	-23.293	-37.509	42.160	-25.449	-79.790	-69.887	38.040	-53.252	-3.376	-13.753	30.207	-16.217	84.423	42.345	-2.125	3.405	42.345	-2.125	3.405	28.408	49.990	13.884	82.412	-51.203	-28.581	33.476	28.258	-11.372	-21.002	-44.612	291.952	48.130	-64.926	-39.461	-70.838	-30.207	-106.295	140.251	37.534	-3.552	62.709	-42.081	-77.189	58.026	-13.919	102.337	-126.457	15.924	-13.981	
5.143	88.848	4.137	-88.206	-22.310	39.419	-3.108	4.202	-11.411	-7.078	7.744	-23.292	-37.514	42.165	-25.451	-79.787	-69.883	38.038	-53.260	-3.381	-13.759	30.196	-16.197	84.414	42.335	-2.131	3.404	42.335	-2.131	3.404	28.405	49.990	13.892	82.419	-51.201	-28.585	33.462	28.268	-11.367	-21.001	-44.623	291.967	48.126	-64.927	-39.457	-70.836	-30.206	-106.295	140.254	37.533	-3.548	62.702	-42.081	-77.186	58.027	-13.923	102.335	-126.457	15.925	-13.980	
5.143	88.848	4.137	-88.206	-22.314	39.416	-3.109	4.204	-11.410	-7.081	7.746	-23.291	-37.522	42.176	-25.458	-79.790	-69.880	38.038	-53.267	-3.383	-13.760	30.190	-16.189	84.420	42.337	-2.135	3.405	42.337	-2.135	3.405	28.401	49.989	13.892	82.435	-51.212	-28.580	33.441	28.288	-11.364	-20.999	-44.623	291.981	48.116	-64.926	-39.450	-70.835	-30.206	-106.296	140.255	37.530	-3.548	62.695	-42.079	-77.183	58.025	-13.928	102.334	-126.455	15.926	-13.978	
5.143	88.849	4.138	-88.203	-22.323	39.409	-3.112	4.206	-11.408	-7.087	7.751	-23.287	-37.525	42.178	-25.461	-79.802	-69.879	38.046	-53.266	-3.382	-13.770	30.187	-16.183	84.423	42.337	-2.140	3.405	42.337	-2.140	3.405	28.398	49.988	13.889	82.438	-51.213	-28.571	33.420	28.287	-11.362	-20.985	-44.610	291.982	48.096	-64.927	-39.438	-70.834	-30.204	-106.296	140.257	37.531	-3.546	62.680	-42.076	-77.178	58.019	-13.931	102.334	-126.453	15.928	-13.977	
5.143	88.849	4.138	-88.201	-22.328	39.403	-3.115	4.207	-11.407	-7.093	7.753	-23.284	-37.528	42.179	-25.463	-79.797	-69.879	38.040	-53.265	-3.383	-13.775	30.191	-16.187	84.424	42.340	-2.145	3.406	42.340	-2.145	3.406	28.400	49.985	13.887	82.432	-51.212	-28.556	33.404	28.273	-11.360	-20.965	-44.590	291.975	48.090	-64.925	-39.437	-70.839	-30.204	-106.294	140.258	37.533	-3.546	62.672	-42.075	-77.177	58.015	-13.934	102.334	-126.451	15.929	-13.976	
5.142	88.850	4.138	-88.200	-22.331	39.399	-3.117	4.208	-11.406	-7.096	7.755	-23.283	-37.532	42.183	-25.462	-79.799	-69.879	38.034	-53.265	-3.381	-13.773	30.193	-16.184	84.436	42.340	-2.148	3.410	42.340	-2.148	3.410	28.410	49.984	13.896	82.421	-51.213	-28.544	33.383	28.246	-11.344	-20.917	-44.570	291.940	48.083	-64.923	-39.430	-70.841	-30.206	-106.293	140.260	37.532	-3.545	62.665	-42.072	-77.175	58.009	-13.938	102.335	-126.452	15.930	-13.976	
5.142	88.850	4.138	-88.200	-22.331	39.399	-3.117	4.208	-11.406	-7.096	7.755	-23.283	-37.532	42.183	-25.462	-79.799	-69.879	38.034	-53.265	-3.381	-13.773	30.193	-16.184	84.436	42.340	-2.148	3.410	42.340	-2.148	3.410	28.410	49.984	13.896	82.421	-51.213	-28.544	33.383	28.246	-11.344	-20.917	-44.570	291.940	48.083	-64.923	-39.430	-70.841	-30.206	-106.293	140.260	37.532	-3.545	62.665	-42.072	-77.175	58.009	-13.938	102.335	-126.452	15.930	-13.976	
5.141	88.851	4.137	-88.196	-22.341	39.392	-3.117	4.211	-11.404	-7.097	7.759	-23.280	-37.549	42.191	-25.466	-79.803	-69.878	38.025	-53.264	-3.367	-13.766	30.192	-16.184	84.455	42.327	-2.143	3.424	42.327	-2.143	3.424	28.426	49.985	13.912	82.404	-51.220	-28.527	33.362	28.253	-11.336	-20.924	-44.587	291.961	48.056	-64.918	-39.404	-70.844	-30.207	-106.288	140.254	37.533	-3.544	62.652	-42.066	-77.170	57.997	-13.941	102.338	-126.452	15.930	-13.976	
5.141	88.851	4.136	-88.194	-22.344	39.389	-3.116	4.210	-11.405	-7.095	7.759	-23.282	-37.555	42.197	-25.465	-79.812	-69.879	38.026	-53.260	-3.363	-13.763	30.191	-16.185	84.460	42.315	-2.138	3.434	42.315	-2.138	3.434	28.436	49.983	13.929	82.414	-51.224	-28.539	33.341	28.267	-11.319	-20.948	-44.594	291.988	48.045	-64.918	-39.395	-70.840	-30.200	-106.290	140.248	37.528	-3.542	62.648	-42.061	-77.166	57.989	-13.942	102.342	-126.455	15.926	-13.977	
5.141	88.851	4.136	-88.194	-22.344	39.389	-3.116	4.210	-11.405	-7.095	7.759	-23.282	-37.555	42.197	-25.465	-79.812	-69.879	38.026	-53.260	-3.363	-13.763	30.191	-16.185	84.460	42.315	-2.138	3.434	42.315	-2.138	3.434	28.436	49.983	13.929	82.414	-51.224	-28.539	33.341	28.267	-11.319	-20.948	-44.594	291.988	48.045	-64.918	-39.395	-70.840	-30.200	-106.290	140.248	37.528	-3.542	62.648	-42.061	-77.166	57.989	-13.942	102.342	-126.455	15.926	-13.977	
5.140	88.851	4.135	-88.190	-22.348	39.387	-3.118	4.211	-11.408	-7.100	7.759	-23.287	-37.551	42.202	-25.460	-79.840	-69.882	38.047	-53.250	-3.367	-13.773	30.185	-16.211	84.453	42.319	-2.151	3.435	42.319	-2.151	3.435	28.442	49.982	13.937	82.447	-51.234	-28.564	33.306	28.281	-11.296	-20.927	-44.582	291.981	48.039	-64.920	-39.390	-70.828	-30.200	-106.296	140.250	37.521	-3.539	62.642	-42.057	-77.162	57.986	-13.942	102.343	-126.460	15.922	-13.977	
5.140	88.851	4.136	-88.187	-22.347	39.387	-3.119	4.210	-11.409	-7.102	7.757	-23.289	-37.549	42.201	-25.457	-79.834	-69.870	38.053	-53.246	-3.381	-13.771	30.185	-16.211	84.446	42.323	-2.160	3.439	42.323	-2.160	3.439	28.433	49.984	13.927	82.456	-51.234	-28.580	33.306	28.261	-11.279	-20.907	-44.567	291.975	48.044	-64.920	-39.395	-70.825	-30.201	-106.297	140.251	37.522	-3.539	62.643	-42.053	-77.164	57.988	-13.941	102.347	-126.458	15.922	-13.973	
5.140	88.851	4.136	-88.187	-22.347	39.387	-3.119	4.210	-11.409	-7.102	7.757	-23.289	-37.549	42.201	-25.457	-79.834	-69.870	38.053	-53.246	-3.381	-13.771	30.185	-16.211	84.446	42.323	-2.160	3.439	42.323	-2.160	3.439	28.433	49.984	13.927	82.456	-51.234	-28.580	33.306	28.261	-11.279	-20.907	-44.567	291.975	48.044	-64.920	-39.395	-70.825	-30.201	-106.297	140.251	37.522	-3.539	62.643	-42.053	-77.164	57.988	-13.941	102.347	-126.458	15.922	-13.973	
5.140	88.850	4.135	-88.186	-22.345	39.386	-3.121	4.208	-11.410	-7.106	7.754	-23.293	-37.545	42.205	-25.452	-79.828	-69.855	38.060	-53.262	-3.387	-13.759	30.186	-16.204	84.448	42.325	-2.175	3.441	42.325	-2.175	3.441	28.442	49.983	13.927	82.456	-51.227	-28.578	33.309	28.243	-11.289	-20.886	-44.548	291.983	48.065	-64.922	-39.414	-70.824	-30.202	-106.302	140.258	37.526	-3.534	62.646	-42.053	-77.163	57.991	-13.937	102.346	-126.462	15.923	-13.975	
5.140	88.849	4.135	-88.185	-22.345	39.386	-3.121	4.207	-11.411	-7.106	7.752	-23.294	-37.544	42.207	-25.454	-79.837	-69.849	38.070	-53.274	-3.381	-13.753	30.186	-16.198	84.455	42.319	-2.176	3.442	42.319	-2.176	3.442	28.448	49.981	13.931	82.440	-51.216	-28.567	33.314	28.242	-11.301	-20.862	-44.558	291.988	48.083	-64.920	-39.432	-70.828	-30.201	-106.303	140.261	37.526	-3.530	62.649	-42.054	-77.162	57.993	-13.933	102.349	-126.463	15.919	-13.976	
5.140	88.848	4.134	-88.183	-22.344	39.386	-3.120	4.206	-11.412	-7.102	7.748	-23.296	-37.546	42.212	-25.456	-79.854	-69.848	38.087	-53.283	-3.378	-13.750	30.180	-16.197	84.465	42.305	-2.169	3.455	42.305	-2.169	3.455	28.453	49.982	13.938	82.426	-51.199	-28.566	33.316	28.240	-11.314	-20.868	-44.570	291.999	48.094	-64.920	-39.442	-70.829	-30.200	-106.306	140.259	37.525	-3.531	62.654	-42.054	-77.165	57.996	-13.930	102.351	-126.461	15.920	-13.973	
5.140	88.848	4.134	-88.183	-22.345	39.387	-3.119	4.206	-11.413	-7.100	7.750	-23.298	-37.549	42.208	-25.457	-79.864	-69.852	38.098	-53.302	-3.389	-13.738	30.194	-16.185	84.469	42.296	-2.163	3.460	42.296	-2.163	3.460	28.447	49.979	13.934	82.429	-51.197	-28.573	33.322	28.253	-11.316	-20.873	-44.576	292.004	48.099	-64.920	-39.448	-70.831	-30.198	-106.307	140.257	37.526	-3.534	62.657	-42.051	-77.163	57.996	-13.924	102.352	-126.463	15.920	-13.973	
5.140	88.848	4.134	-88.181	-22.349	39.388	-3.118	4.208	-11.414	-7.100	7.753	-23.300	-37.551	42.203	-25.455	-79.875	-69.858	38.112	-53.311	-3.394	-13.739	30.195	-16.202	84.484	42.289	-2.159	3.459	42.289	-2.159	3.459	28.438	49.976	13.930	82.441	-51.198	-28.584	33.325	28.267	-11.329	-20.877	-44.579	292.021	48.094	-64.919	-39.445	-70.830	-30.195	-106.308	140.254	37.526	-3.533	62.653	-42.048	-77.161	57.997	-13.926	102.352	-126.463	15.919	-13.971	
5.140	88.847	4.133	-88.180	-22.352	39.388	-3.118	4.209	-11.415	-7.100	7.756	-23.302	-37.552	42.198	-25.453	-79.887	-69.864	38.127	-53.321	-3.399	-13.740	30.196	-16.219	84.498	42.281	-2.155	3.457	42.281	-2.155	3.457	28.430	49.972	13.926	82.454	-51.199	-28.595	33.327	28.280	-11.342	-20.880	-44.581	292.038	48.088	-64.917	-39.441	-70.829	-30.192	-106.309	140.252	37.526	-3.532	62.650	-42.046	-77.160	57.997	-13.927	102.353	-126.464	15.919	-13.970	
5.139	88.847	4.133	-88.179	-22.356	39.385	-3.119	4.211	-11.414	-7.103	7.758	-23.301	-37.552	42.199	-25.451	-79.864	-69.862	38.117	-53.340	-3.414	-13.730	30.196	-16.217	84.506	42.278	-2.146	3.456	42.278	-2.147	3.456	28.420	49.971	13.920	82.474	-51.195	-28.611	33.332	28.273	-11.349	-20.871	-44.572	292.046	48.080	-64.916	-39.437	-70.832	-30.190	-106.308	140.250	37.527	-3.534	62.643	-42.044	-77.157	57.997	-13.927	102.352	-126.462	15.922	-13.967	
5.139	88.847	4.133	-88.179	-22.356	39.385	-3.119	4.211	-11.414	-7.103	7.758	-23.301	-37.552	42.199	-25.451	-79.864	-69.862	38.117	-53.340	-3.414	-13.730	30.196	-16.217	84.506	42.278	-2.146	3.456	42.278	-2.147	3.456	28.420	49.971	13.920	82.474	-51.195	-28.611	33.332	28.273	-11.349	-20.871	-44.572	292.046	48.080	-64.916	-39.437	-70.832	-30.190	-106.308	140.250	37.527	-3.534	62.643	-42.044	-77.157	57.997	-13.927	102.352	-126.462	15.922	-13.967	
5.139	88.846	4.132	-88.178	-22.360	39.381	-3.120	4.211	-11.415	-7.104	7.759	-23.301	-37.551	42.216	-25.446	-79.855	-69.862	38.111	-53.371	-3.421	-13.709	30.196	-16.206	84.506	42.274	-2.124	3.474	42.274	-2.124	3.474	28.426	49.967	13.926	82.496	-51.191	-28.640	33.348	28.259	-11.367	-20.882	-44.558	292.088	48.071	-64.917	-39.430	-70.832	-30.193	-106.308	140.253	37.526	-3.533	62.634	-42.045	-77.154	57.995	-13.932	102.350	-126.463	15.924	-13.966	
5.140	88.846	4.132	-88.176	-22.360	39.380	-3.120	4.210	-11.415	-7.105	7.756	-23.301	-37.562	42.212	-25.462	-79.834	-69.853	38.105	-53.375	-3.427	-13.708	30.197	-16.201	84.505	42.272	-2.096	3.502	42.272	-2.096	3.502	28.430	49.965	13.922	82.491	-51.194	-28.638	33.356	28.260	-11.380	-20.893	-44.561	292.110	48.078	-64.917	-39.439	-70.833	-30.194	-106.307	140.258	37.527	-3.531	62.630	-42.044	-77.156	57.993	-13.935	102.348	-126.464	15.925	-13.966	
5.140	88.846	4.132	-88.176	-22.360	39.380	-3.120	4.210	-11.415	-7.105	7.756	-23.301	-37.562	42.212	-25.462	-79.834	-69.853	38.105	-53.375	-3.427	-13.708	30.197	-16.201	84.505	42.272	-2.096	3.502	42.272	-2.096	3.502	28.430	49.965	13.922	82.491	-51.194	-28.638	33.356	28.260	-11.380	-20.893	-44.561	292.110	48.078	-64.917	-39.439	-70.833	-30.194	-106.307	140.258	37.527	-3.531	62.630	-42.044	-77.156	57.993	-13.935	102.348	-126.464	15.925	-13.966	
5.140	88.846	4.133	-88.175	-22.358	39.380	-3.119	4.208	-11.417	-7.102	7.753	-23.305	-37.567	42.201	-25.471	-79.820	-69.852	38.107	-53.373	-3.425	-13.728	30.196	-16.201	84.499	42.278	-2.080	3.526	42.278	-2.080	3.526	28.415	49.967	13.910	82.507	-51.186	-28.648	33.350	28.282	-11.409	-20.885	-44.580	292.119	48.090	-64.914	-39.456	-70.840	-30.189	-106.304	140.258	37.526	-3.531	62.632	-42.038	-77.172	57.984	-13.948	102.348	-126.466	15.929	-13.968	
